<?xml version="1.0" encoding="utf-8"?><!-- Generator: Adobe Illustrator 15.0.0, SVG Export Plug-In . SVG Version: 6.00 Build 0)  --><!DOCTYPE svg PUBLIC "-//W3C//DTD SVG 1.1//EN" "http://www.w3.org/Graphics/SVG/1.1/DTD/svg11.dtd"><svg xmlns="http://www.w3.org/2000/svg" xmlns:xlink="http://www.w3.org/1999/xlink" viewBox="0 0 26 26" width="104px" height="104px"><path fill="#000000" d="M12.135,12.839l-2.488,8.552c-2.162-1.454-4.514-2.653-9.502-0.588l2.431-8.459l0.03-0.014  C7.574,10.287,9.98,11.378,12.135,12.839z M13.438,13.665l-2.459,8.458c2.16,1.466,4.553,2.633,9.535,0.571l2.371-8.245  C17.809,16.187,15.598,15.119,13.438,13.665z M12.549,11.299l2.455-8.472c-2.16-1.46-4.556-2.631-9.541-0.564L3.006,10.77  c1.981-0.817,3.545-1.191,4.855-1.18C9.85,9.603,11.248,10.424,12.549,11.299z M16.299,3.718l-2.455,8.521  c2.153,1.46,4.757,2.657,9.531,0.522l2.453-8.488C20.849,6.328,18.455,5.175,16.299,3.718z"/></svg>